<svg id="Capa_1" enable-background="new 0 0 512 512" height="512" viewBox="0 0 512 512" width="512" xmlns="http://www.w3.org/2000/svg"><g id="XMLID_1096_"><path id="XMLID_1060_" d="m10 10h492v412h-492z" fill="#fff"/><path id="XMLID_1061_" d="m10 10h492v80h-492z" fill="#98eaf9"/><path id="XMLID_979_" d="m76 188h360v136h-360z" fill="#ff7d97"/><path id="XMLID_1195_" d="m256.004 276 126.154 72.835-31.752 18.332 56.962 98.661-62.65 36.172-56.962-98.661-31.752 18.332z" fill="#66dff6"/><g id="XMLID_133_"><path id="XMLID_149_" d="m502 0h-492c-5.523 0-10 4.477-10 10v412c0 5.523 4.477 10 10 10h282.757l43.301 75c1.326 2.297 3.51 3.973 6.072 4.659.852.228 1.721.341 2.588.341 1.74 0 3.467-.455 5-1.34l62.65-36.171c4.783-2.761 6.422-8.878 3.66-13.66l-16.644-28.829h102.616c5.522 0 10-4.477 10-10v-412c0-5.523-4.478-10-10-10zm-10 20v60h-472v-60zm-143.622 468.34-51.962-90.001c-1.326-2.297-3.51-3.973-6.072-4.659-.852-.228-1.721-.341-2.588-.341-1.74 0-3.467.455-5 1.34l-16.752 9.672v-111.031l96.154 55.515-16.752 9.672c-4.783 2.761-6.422 8.878-3.66 13.66l51.962 90.001zm39.459-76.34-23.771-41.172 23.092-13.332c3.094-1.786 5-5.087 5-8.66s-1.906-6.874-5-8.66l-10.696-6.176h59.538c5.522 0 10-4.477 10-10v-136c0-5.523-4.478-10-10-10h-135c-5.522 0-10 4.477-10 10s4.478 10 10 10h125v116h-84.179l-80.818-46.66c-3.094-1.786-6.906-1.786-10 0s-5 5.087-5 8.66v38h-160.003v-116h125c5.523 0 10-4.477 10-10s-4.477-10-10-10h-135c-5.523 0-10 4.477-10 10v136c0 5.523 4.477 10 10 10h170.004v78h-226.004v-312h472v312z"/><path id="XMLID_152_" d="m64 60c2.63 0 5.21-1.07 7.07-2.93s2.93-4.44 2.93-7.07-1.07-5.21-2.93-7.07-4.44-2.93-7.07-2.93-5.21 1.07-7.07 2.93-2.93 4.44-2.93 7.07 1.07 5.21 2.93 7.07 4.44 2.93 7.07 2.93z"/><path id="XMLID_153_" d="m112 60c2.63 0 5.21-1.07 7.07-2.93s2.93-4.44 2.93-7.07-1.07-5.21-2.93-7.07-4.44-2.93-7.07-2.93-5.21 1.07-7.07 2.93-2.93 4.44-2.93 7.07 1.07 5.21 2.93 7.07 4.44 2.93 7.07 2.93z"/><path id="XMLID_1077_" d="m160 60c2.63 0 5.21-1.07 7.07-2.93s2.93-4.44 2.93-7.07-1.07-5.21-2.93-7.07-4.44-2.93-7.07-2.93-5.21 1.07-7.07 2.93-2.93 4.44-2.93 7.07 1.07 5.21 2.93 7.07 4.44 2.93 7.07 2.93z"/><path id="XMLID_1087_" d="m256 60h191.5c5.522 0 10-4.477 10-10s-4.478-10-10-10h-191.5c-5.523 0-10 4.477-10 10s4.477 10 10 10z"/><path id="XMLID_1088_" d="m256 178c-2.63 0-5.21 1.07-7.07 2.93s-2.93 4.44-2.93 7.07 1.07 5.21 2.93 7.07 4.44 2.93 7.07 2.93 5.21-1.07 7.069-2.93c1.86-1.86 2.931-4.44 2.931-7.07s-1.07-5.21-2.931-7.07c-1.859-1.86-4.439-2.93-7.069-2.93z"/></g></g></svg>