<svg id="Layer_1" enable-background="new 0 0 512.011 512.011" height="512" viewBox="0 0 512.011 512.011" width="512" xmlns="http://www.w3.org/2000/svg"><g><g clip-rule="evenodd" fill-rule="evenodd"><path d="m32.504 55h447.002c12.375 0 22.5-10.125 22.5-22.5s-10.125-22.499-22.5-22.499h-447.002c-12.375 0-22.5 10.125-22.5 22.5.001 12.374 10.126 22.499 22.5 22.499z" fill="#8481e2"/><path d="m479.507 55h-447.003v260c0 33 27 60 60 60h60.002 46.587 113.823 46.587 60.002c33 0 60-27 60-60v-260zm-343.502 160c0-66.274 53.726-120 120-120 44.413 0 83.191 24.128 103.941 59.99 10.214 17.653 16.06 38.149 16.06 60.01 0 44.413-24.127 83.19-59.99 103.941-17.653 10.214-38.149 16.06-60.01 16.06-66.275-.001-120.001-53.727-120.001-120.001z" fill="#fff"/><path d="m256.005 215v-120c-66.274 0-120 53.726-120 120z" fill="#ffea60"/><path d="m256.005 95v120l103.941-60.01c-20.75-35.863-59.528-59.99-103.941-59.99z" fill="#66e0f7"/><path d="m359.946 154.99-103.941 60.01 60.01 103.941c35.863-20.75 59.99-59.528 59.99-103.941.001-21.862-5.845-42.358-16.059-60.01z" fill="#5cd0b3"/><path d="m316.016 318.94-60.011-103.94h-120c0 66.274 53.726 120 120 120 21.862 0 42.358-5.846 60.011-16.06z" fill="#ff5d7d"/><g fill="#8481e2"><path d="m199.094 375h-46.587l-26.442 98.681c-3.203 11.953 3.956 24.354 15.91 27.556 11.953 3.203 24.354-3.956 27.556-15.91z"/><path d="m312.917 375 29.562 110.328c3.203 11.953 15.603 19.113 27.557 15.91s19.113-15.603 15.91-27.556l-26.441-98.682z"/></g></g><g><path d="m512.006 32.499c0-17.92-14.579-32.499-32.499-32.499h-447.003c-17.92 0-32.5 14.579-32.5 32.5 0 14.432 9.458 26.691 22.5 30.919v251.581c0 38.598 31.402 70 70 70h46.97l-23.069 86.092c-2.241 8.361-1.08 17.115 3.27 24.648 4.349 7.533 11.35 12.916 19.711 15.156 2.783.746 5.608 1.114 8.418 1.114 5.634 0 11.204-1.482 16.229-4.384 7.533-4.35 12.916-11.35 15.156-19.712l27.578-102.914h98.477l27.576 102.915c2.24 8.362 7.623 15.362 15.155 19.711 5.026 2.902 10.596 4.385 16.23 4.385 2.81 0 5.636-.368 8.418-1.114 8.362-2.24 15.362-7.623 19.711-15.156 4.35-7.533 5.511-16.287 3.271-24.647l-23.068-86.094h46.97c38.598 0 70-31.402 70-70v-251.581c13.041-4.229 22.499-16.488 22.499-30.92zm-352.133 450.24c-.858 3.201-2.931 5.889-5.838 7.566-2.907 1.68-6.27 2.133-9.472 1.272-3.201-.857-5.889-2.932-7.567-5.838s-2.13-6.271-1.272-9.472l24.456-91.267h25.882zm216.414-6.469c.857 3.2.406 6.564-1.272 9.471-1.678 2.906-4.365 4.979-7.566 5.838-6.66 1.779-13.525-2.181-15.31-8.839l-26.19-97.74h25.883zm103.22-431.27h-307c-5.523 0-10 4.478-10 10s4.477 10 10 10h297v250c0 27.57-22.43 50-50 50h-327.003c-27.57 0-50-22.43-50-50v-250h40.002c5.523 0 10-4.478 10-10s-4.477-10-10-10h-50.002c-6.892 0-12.5-5.608-12.5-12.501 0-6.892 5.607-12.499 12.5-12.499h447.002c6.892 0 12.499 5.607 12.499 12.5s-5.607 12.5-12.498 12.5z"/><path d="m256.005 345c71.682 0 130-58.318 130-130.001s-58.318-130-130-130-130 58.317-130 130 58.318 130.001 130 130.001zm-109.54-120h103.767l51.879 89.857c-14.031 6.504-29.65 10.143-46.106 10.143-57.282 0-104.47-44.016-109.54-100zm172.953 79.833-49.752-86.173 86.197-49.766c6.504 14.031 10.143 29.65 10.143 46.105 0 37.059-18.423 69.894-46.588 89.834zm26.421-153.246-79.834 46.092v-92.221c32.925 2.982 61.708 20.526 79.834 46.129zm-99.834-46.129v99.542h-99.541c4.771-52.69 46.851-94.771 99.541-99.542z"/><path d="m137.509 55c0-5.522-4.477-10-10-10h-.007c-5.523 0-9.997 4.478-9.997 10s4.48 10 10.003 10 10.001-4.478 10.001-10z"/></g></g></svg>