<?xml version="1.0"?>
<svg xmlns="http://www.w3.org/2000/svg" xmlns:xlink="http://www.w3.org/1999/xlink" xmlns:svgjs="http://svgjs.com/svgjs" version="1.1" width="512" height="512" x="0" y="0" viewBox="0 0 512 512" style="enable-background:new 0 0 512 512" xml:space="preserve" class=""><g><g xmlns="http://www.w3.org/2000/svg"><path d="m241 181h30v120h-30z" fill="#ffffff" data-original="#000000" style="" class=""/><path d="m121 241h30v60h-30z" fill="#ffffff" data-original="#000000" style="" class=""/><path d="m0 31v360h512v-360zm451 300c-8.026 0-403.427 0-390 0v-30h30v-90h90v90h30v-150h90v150h30v-210h90v210h30z" fill="#ffffff" data-original="#000000" style="" class=""/><path d="m361 121h30v180h-30z" fill="#ffffff" data-original="#000000" style="" class=""/><path d="m301 421h-90v30h-60v30c4.311 0 222.699 0 210 0v-30h-60z" fill="#ffffff" data-original="#000000" style="" class=""/></g></g></svg>
